<?xml version="1.0" encoding="utf-8"?>
<!-- Generator: Adobe Illustrator 26.0.1, SVG Export Plug-In . SVG Version: 6.00 Build 0)  -->
<svg version="1.1" id="Layer_1" xmlns="http://www.w3.org/2000/svg" xmlns:xlink="http://www.w3.org/1999/xlink" x="0px" y="0px"
	 viewBox="0 0 30 30" style="enable-background:new 0 0 30 30;" xml:space="preserve">
<style type="text/css">
	.st0{opacity:0.4;}
	.st1{fill:url(#SVGID_1_);}
	.st2{fill:#FFFFFF;}
	.st3{font-family:'FontAwesome5Free-Solid';}
	.st4{font-size:12.216px;}
</style>
<g>
	<g class="st0">
		
			<image style="overflow:visible;" width="396" height="400" xlink:href="FFF2DEE3E78854B2.png"  transform="matrix(0.24 0 0 0.24 -32.5639 -32.2211)">
		</image>
	</g>
	<linearGradient id="SVGID_1_" gradientUnits="userSpaceOnUse" x1="3.549" y1="14.1799" x2="26.451" y2="14.1799">
		<stop  offset="0" style="stop-color:#FCBB30"/>
		<stop  offset="0.5129" style="stop-color:#F06A6A"/>
		<stop  offset="1" style="stop-color:#D95AA1"/>
	</linearGradient>
	<path class="st1" d="M16.1,2.5l1.9,1.1c0.3,0.2,0.6,0.3,0.9,0.3L21,4.1c0.8,0.1,1.4,0.5,1.7,1.2l0.8,2c0.1,0.3,0.3,0.6,0.5,0.8
		l1.7,1.4c0.6,0.5,0.8,1.3,0.7,2l-0.5,2.1c-0.1,0.3-0.1,0.6,0,0.9l0.5,2.1c0.2,0.7-0.1,1.5-0.7,2l-1.7,1.4c-0.2,0.2-0.4,0.5-0.5,0.8
		l-0.8,2c-0.3,0.7-0.9,1.2-1.7,1.2l-2.2,0.2c-0.3,0-0.6,0.1-0.9,0.3l-1.9,1.1c-0.6,0.4-1.5,0.4-2.1,0l-1.9-1.1
		c-0.3-0.2-0.6-0.3-0.9-0.3L9,24.2c-0.8-0.1-1.4-0.5-1.7-1.2l-0.8-2c-0.1-0.3-0.3-0.6-0.5-0.8l-1.7-1.4c-0.6-0.5-0.8-1.3-0.7-2
		l0.5-2.1c0.1-0.3,0.1-0.6,0-0.9l-0.5-2.1c-0.2-0.7,0.1-1.5,0.7-2l1.7-1.4C6.2,8,6.3,7.7,6.5,7.4l0.8-2C7.6,4.7,8.3,4.2,9,4.1
		L11.2,4c0.3,0,0.6-0.1,0.9-0.3l1.9-1.1C14.6,2.1,15.4,2.1,16.1,2.5z"/>
	<text transform="matrix(1 0 0 1 9.1009 18.9961)" class="st2 st3 st4">check</text>
</g>
</svg>
