<?xml version="1.0" encoding="utf-8"?>
<!-- Generator: Adobe Illustrator 26.0.1, SVG Export Plug-In . SVG Version: 6.00 Build 0)  -->
<svg version="1.1" id="Layer_1" xmlns="http://www.w3.org/2000/svg" xmlns:xlink="http://www.w3.org/1999/xlink" x="0px" y="0px"
	 viewBox="0 0 25 25" style="enable-background:new 0 0 25 25;" xml:space="preserve">
<style type="text/css">
	.st0{fill:#FCBB30;}
</style>
<g>
	<path class="st0" d="M12.5,6.9c-1.6,0-2.8,1.2-2.8,2.8s1.2,2.8,2.8,2.8s2.8-1.2,2.8-2.8S14.1,6.9,12.5,6.9z"/>
	<path class="st0" d="M12.5,0.6C5.9,0.6,0.6,5.9,0.6,12.5s5.3,11.9,11.9,11.9s11.9-5.3,11.9-11.9S19.1,0.6,12.5,0.6z M18.2,19.6
		c0-3.2-2.5-5.7-5.7-5.7c-3.2,0-5.7,2.5-5.7,5.6H5.4c0-3,1.9-5.5,4.5-6.6c-0.9-0.8-1.6-2-1.6-3.3c0-2.3,1.9-4.2,4.2-4.2
		c2.3,0,4.2,2,4.1,4.3c0,1.3-0.7,2.5-1.6,3.3c2.6,1,4.5,3.6,4.5,6.6H18.2z"/>
</g>
</svg>
