<?xml version="1.0" encoding="utf-8"?>
<!-- Generator: Adobe Illustrator 26.0.1, SVG Export Plug-In . SVG Version: 6.00 Build 0)  -->
<svg version="1.1" id="Layer_1" xmlns="http://www.w3.org/2000/svg" xmlns:xlink="http://www.w3.org/1999/xlink" x="0px" y="0px"
	 viewBox="0 0 25 25" style="enable-background:new 0 0 25 25;" xml:space="preserve">
<style type="text/css">
	.st0{fill:#FCBB30;}
	.st1{fill:#FFFFFF;}
</style>
<circle class="st0" cx="12.5" cy="12.5" r="11.9"/>
<path class="st1" d="M12.5,14C12.5,14,12.5,14,12.5,14C12.5,14,12.5,14,12.5,14c3.4,0,6.1,2.7,6.1,6.1H20c0-3.2-2-5.9-4.8-7
	c1-0.8,1.7-2.1,1.7-3.5C17,7.1,15,5,12.5,5S8,7.1,8,9.5c0,1.4,0.7,2.7,1.7,3.5c-2.8,1.1-4.8,3.8-4.8,7h1.5C6.4,16.7,9.1,14,12.5,14z
	 M9.5,9.5c0-1.7,1.3-3,3-3c1.7,0,3,1.3,3,3c0,1.7-1.3,3-3,3c0,0,0,0,0,0c0,0,0,0,0,0C10.8,12.5,9.5,11.2,9.5,9.5z"/>
</svg>
